<svg width="101" height="28" viewBox="0 0 101 28" fill="none" xmlns="http://www.w3.org/2000/svg">
<path fill-rule="evenodd" clip-rule="evenodd" d="M100.122 14C100.122 20.3412 98.7231 24.9529 97.16 28H94.6919C95.6791 25.0353 96.7486 19.2706 96.7486 14C96.7486 8.72941 95.6791 2.96471 94.6919 0H97.16C98.7231 3.04706 100.122 7.65882 100.122 14Z" fill="#D42126"/>
<path d="M21.1316 13.4033C18.838 13.1279 16.4527 12.3475 16.4527 11.5213C16.4527 10.0984 18.7004 9.36394 20.8105 9.36394H21.2692C23.5169 9.36394 25.5811 10.6033 25.5811 11.5672V12.0721C25.5811 12.2098 25.7187 12.3475 25.8563 12.3475H26.7738C26.9114 12.3475 27.049 12.2098 27.049 12.0721V11.5213C27.049 9.40984 23.9297 7.84919 21.1774 7.84919H20.6729C17.8747 7.89509 14.8472 9.04263 14.8472 11.5213C14.8472 14.2754 20.26 14.7803 20.8563 14.8262C23.0123 15.0098 25.5352 15.882 25.5352 16.7082C25.5352 18.1312 23.2875 18.9115 21.2233 18.9115H20.7187C18.471 18.9115 16.4068 17.6721 16.4068 16.7082V16.2033C16.4068 16.0656 16.2692 15.9279 16.1316 15.9279H15.2141C15.0765 15.9279 14.9389 16.0656 14.9389 16.2033V16.7082C14.9389 18.8197 18.0582 20.3803 20.8105 20.3803H21.2692C24.1132 20.3803 27.1407 19.2328 27.1407 16.7082C27.1407 14 21.7738 13.4492 21.1316 13.4033ZM45.3059 7.80328H44.3885C44.2508 7.80328 44.1132 7.94099 44.1132 8.07869V16.6623C44.1132 18.0853 41.8655 18.8656 39.8013 18.8656H39.2967C37.049 18.8656 34.9848 17.6262 34.9848 16.6623V8.07869C34.9848 7.94099 34.8472 7.80328 34.7096 7.80328H33.7921C33.6545 7.80328 33.5169 7.94099 33.5169 8.07869V16.7541C33.5169 18.8656 36.6362 20.4262 39.3885 20.4262H39.893C42.049 20.4262 43.8839 19.8295 44.8472 18.7738C45.3976 18.1771 45.6729 17.4885 45.5811 16.6623V8.07869C45.5352 7.94099 45.4435 7.80328 45.3059 7.80328ZM62.7371 17.9475C62.7371 18.1771 62.416 18.3148 62.2784 18.1312L54.5719 8.3082C54.2967 7.98689 53.9297 7.80328 53.471 7.80328C53.2875 7.80328 53.104 7.84919 52.9206 7.89509C52.416 8.1246 52.049 8.58361 52.049 9.13443V20.1049C52.049 20.2426 52.1866 20.3803 52.3242 20.3803H53.2417C53.3793 20.3803 53.5169 20.2426 53.5169 20.1049L53.6086 10.2361C53.6086 10.0066 53.9297 9.86886 54.0674 10.0984L61.7279 19.9213C61.9573 20.2426 62.3701 20.4262 62.7829 20.4262C62.9664 20.4262 63.1499 20.3803 63.3334 20.3344C63.838 20.1508 64.205 19.6459 64.205 19.0951V8.07869C64.205 7.94099 64.0674 7.80328 63.9297 7.80328H63.0123C62.8747 7.80328 62.7371 7.94099 62.7371 8.07869V17.9475ZM78.0582 7.80328C73.9297 7.80328 70.5352 10.6033 70.5352 14.0918C70.5352 17.5803 73.8839 20.3803 78.0582 20.3803C82.1866 20.3803 85.5811 17.5803 85.5811 14.0918C85.5811 10.6033 82.1866 7.80328 78.0582 7.80328ZM78.0582 19.0033C74.8013 19.0033 72.0949 16.8 72.0949 14.1836C72.0949 11.5213 74.7554 9.36394 78.0582 9.36394C81.4068 9.36394 84.0215 11.4754 84.0215 14.1836C84.0215 16.8459 81.3609 19.0033 78.0582 19.0033Z" fill="white"/>
<path fill-rule="evenodd" clip-rule="evenodd" d="M2.96169 0H5.42977C4.36027 2.96471 3.29077 8.72941 3.29077 14C3.29077 19.2706 4.36027 25.0353 5.3475 28H2.87943C1.39858 24.9529 0 20.3412 0 14C0 7.65882 1.39858 3.04706 2.96169 0Z" fill="#D42126"/>
</svg>
